# xmcd CD database file
#
# Track frame offsets:
#	150
#	17327
#	34666
#	64417
#	79842
#	96170
#	113003
#	139565
#	155807
#
# Disc length: 2270 seconds
#
# Revision: 0
# Processed by: cddbd v1.5.2PL0 Copyright (c) Steve Scherf et al.
# Submitted via: CDex 1.70beta2
#
DISCID=6c08dc09
DTITLE=Nasta Super - Nasta Super
DYEAR=1998
DGENRE=Blues
TTITLE0=La Oportunidad
TTITLE1=Nada Importa
TTITLE2=El Momento
TTITLE3=La Farsante
TTITLE4=Siempre
TTITLE5=Modelo Mambo
TTITLE6=El Bajon
TTITLE7=Chica Rebelde
TTITLE8=La Bolita
EXTD=YEAR: 1998
EXTT0=
EXTT1=
EXTT2=
EXTT3=
EXTT4=
EXTT5=
EXTT6=
EXTT7=
EXTT8=
PLAYORDER=
